<?xml version="1.0" standalone="no"?>
<!DOCTYPE svg PUBLIC "-//W3C//DTD SVG 20010904//EN"
 "http://www.w3.org/TR/2001/REC-SVG-20010904/DTD/svg10.dtd">
<svg version="1.0" xmlns="http://www.w3.org/2000/svg"
 width="2333.000000pt" height="2333.000000pt" viewBox="0 0 2333.000000 2333.000000"
 preserveAspectRatio="xMidYMid meet">

<g transform="translate(0.000000,2333.000000) scale(0.100000,-0.100000)" stroke="none">
<circle cx="1166.5" cy="1166.5" r="1166.5" fill="white"/>

<path d="M16375 21874 c-888 -52 -1822 -300 -2605 -690 -1074 -536 -1857
-1346 -2269 -2348 l-53 -128 68 -187 c504 -1397 959 -3214 1204 -4814 311
-2035 368 -3857 174 -5622 -160 -1465 -541 -2932 -1064 -4100 -126 -280 -166
-431 -142 -536 23 -100 75 -139 185 -139 302 0 918 346 1832 1030 1202 899
2356 1999 3340 3181 2340 2812 3688 6033 3950 9434 44 583 54 965 31 1195
-108 1040 -529 1963 -1192 2610 -653 638 -1509 997 -2609 1095 -159 15 -717
27 -850 19z m-2911 -4701 c-135 -306 -196 -515 -224 -768 -18 -165 -6 -419 21
-436 19 -11 284 -69 463 -99 995 -172 1938 -86 2811 256 490 193 1024 525
1363 848 l95 91 -7 -40 c-29 -153 -172 -473 -293 -652 -233 -346 -585 -657
-974 -857 l-121 -64 20 -20 c35 -35 95 -45 232 -39 368 15 1010 201 1444 419
307 154 544 318 760 528 86 83 117 108 112 90 -40 -152 -78 -315 -95 -403 -25
-127 -37 -272 -25 -279 5 -3 52 -1 104 5 112 12 283 -2 405 -33 44 -11 127
-43 185 -71 93 -46 116 -62 200 -148 73 -73 106 -115 137 -176 93 -181 127
-340 126 -605 0 -150 -4 -204 -21 -283 -102 -471 -414 -885 -866 -1149 -101
-60 -318 -162 -429 -203 -186 -68 -449 -136 -667 -172 -87 -14 -101 -19 -105
-37 -2 -12 -11 -75 -20 -141 -36 -275 -125 -645 -212 -885 -247 -681 -592
-1020 -1041 -1020 -218 0 -458 82 -717 245 -54 34 -94 53 -101 48 -6 -4 -53
-37 -105 -71 -168 -114 -316 -173 -485 -194 -77 -10 -104 -9 -175 5 -466 91
-721 671 -779 1772 -5 105 -10 236 -10 293 0 74 -4 104 -12 106 -7 1 -70 17
-140 34 -325 78 -634 247 -875 476 -323 308 -499 671 -572 1181 -117 816 39
1614 441 2255 54 86 157 230 165 230 2 0 -4 -17 -13 -37z" fill="#154E78"/>
<path d="M6860 20520 c-397 -33 -832 -125 -1175 -248 -716 -258 -1313 -628
-1986 -1233 -516 -463 -918 -1078 -1158 -1774 -351 -1017 -329 -2122 65 -3285
351 -1033 998 -2106 1934 -3205 216 -254 822 -1049 1360 -1785 2328 -3184
3685 -5527 3855 -6655 20 -131 19 -322 -1 -437 -29 -166 -7 -322 54 -392 26
-29 92 -56 139 -56 330 -1 959 811 1547 2000 802 1618 1287 3543 1416 5615 31
506 41 1404 20 1900 -101 2392 -608 4875 -1525 7462 -96 269 -75 239 -297 438
-853 764 -1869 1313 -2848 1539 -367 84 -636 116 -1015 121 -154 2 -327 0
-385 -5z m1720 -4885 c484 -75 866 -258 1184 -565 253 -244 457 -555 545 -831
92 -291 106 -592 40 -854 -48 -190 -836 -2092 -1005 -2428 -47 -93 -134 -214
-215 -301 -231 -247 -513 -367 -857 -366 -186 1 -281 20 -862 176 -529 142
-1769 506 -1891 555 -382 152 -717 526 -869 965 -89 258 -120 427 -127 686 -6
217 3 324 43 506 74 333 250 684 504 1002 119 150 400 426 570 561 298 238
621 443 864 551 399 177 868 302 1316 353 169 19 613 13 760 -10z" fill="#BB3150"/>
</g>
</svg>
